<svg width="20" height="20" viewBox="0 0 20 20" fill="none" xmlns="http://www.w3.org/2000/svg">
<path fill-rule="evenodd" clip-rule="evenodd" d="M6.08562 3.64999C5.79727 3.03011 5.477 3.01505 5.20462 3.01505C4.96418 3 4.70684 3 4.43446 3C4.179 3 3.74601 3.09033 3.37784 3.46845C3.00872 3.84569 2 4.73744 2 6.5652C2 8.39384 3.40977 10.1614 3.60231 10.4031C3.79391 10.6449 6.32606 14.5121 10.3328 16.0086C13.6651 17.2475 14.3386 17.0057 15.0599 16.9296C15.7803 16.8543 17.3835 16.0387 17.7198 15.162C18.04 14.3013 18.04 13.5459 17.9442 13.3945C17.8484 13.244 17.5751 13.1528 17.191 12.9562C16.7899 12.7755 14.8673 11.8687 14.4992 11.7474C14.1301 11.627 13.8736 11.5667 13.6172 11.9289C13.3608 12.3071 12.6076 13.1377 12.3681 13.3794C12.1427 13.6212 11.9032 13.6513 11.5181 13.4698C11.118 13.2891 9.8519 12.8959 8.34538 11.627C7.17511 10.644 6.38992 9.42107 6.14948 9.05889C5.92595 8.68076 6.11755 8.48417 6.32606 8.30263C6.50263 8.13703 6.7271 7.86517 6.91964 7.65353C7.11124 7.441 7.17511 7.2754 7.31975 7.03365C7.44749 6.7919 7.38362 6.5652 7.28782 6.38455C7.19108 6.21806 6.43876 4.3903 6.08562 3.64999Z" stroke="white" stroke-linejoin="round"/>
</svg>
