<svg width="80" height="80" viewBox="0 0 80 80" fill="none" xmlns="http://www.w3.org/2000/svg">
<g clip-path="url(#clip0_5_252)">
<path d="M1.17188 62.0419V6.16828C1.17188 5.02656 2.0975 4.10094 3.23922 4.10094H52.0373C53.8127 4.10094 54.7622 6.19109 53.5944 7.52812L4.79625 63.4017C3.54 64.8402 1.17188 63.9517 1.17188 62.0419Z" stroke="#47688E" stroke-width="2.5" stroke-miterlimit="10" stroke-linecap="round" stroke-linejoin="round"/>
<path d="M1.17188 15.3192H5.37891M1.17188 20.8203H3.60078M1.17188 26.3212H3.60078M1.17188 31.8223H3.60078M1.17188 37.3233H5.37891M1.17188 42.8244H3.60078M1.17188 48.3253H3.60078M1.17188 53.8264H3.60078M12.2219 4.10094V8.30797M17.723 4.10094V6.53M23.2239 4.10094V6.53M28.725 4.10094V6.53M34.2261 4.10094V8.30797M39.727 4.10094V6.53M45.2281 4.10094V6.53M12.2219 15.1511H32.2656L12.2219 38.1011V15.1511Z" stroke="#47688E" stroke-width="2.5" stroke-miterlimit="10" stroke-linecap="round" stroke-linejoin="round"/>
<path d="M32.2656 15.1516H25.0109C23.8984 15.1516 22.9969 16.0531 22.9969 17.1656V25.7641M42.4391 20.3H43.1594C49.275 20.3 54.8125 22.7781 58.8187 26.7875C62.8281 30.7953 65.3062 36.3313 65.3062 42.4484C65.3062 54.6797 55.3906 64.5969 43.1594 64.5969H37.0156V67.7313C37.0156 68.8438 36.1141 69.7453 35.0016 69.7453H25.0109C23.8984 69.7453 22.9969 68.8438 22.9969 67.7313V42.5625" stroke="#47688E" stroke-width="2.5" stroke-miterlimit="10" stroke-linecap="round" stroke-linejoin="round"/>
<path d="M34.0472 48.0526V31.3505H43.1586C49.278 31.3505 54.2564 36.3291 54.2564 42.4483C54.2564 48.5675 49.2778 53.5461 43.1586 53.5461H34.0472M69.9155 17.9475H78.8281V66.3092C78.8281 66.9595 78.6797 67.6005 78.3956 68.1861L74.6512 75.8991L70.4475 68.265C70.0985 67.6299 69.9155 66.917 69.9155 66.1923V23.4603" stroke="#47688E" stroke-width="2.5" stroke-miterlimit="10" stroke-linecap="round" stroke-linejoin="round"/>
<path d="M74.3717 46.9663V40.1441M76.4925 9.69891H72.2502C70.9605 9.69891 69.915 10.7444 69.915 12.0341V17.9478H78.8277V12.0341C78.8277 10.7444 77.7822 9.69891 76.4925 9.69891ZM78.8281 66.3091C78.8281 66.9594 78.6797 67.6003 78.3956 68.1859L74.6513 75.8989L70.4475 68.2648C70.0985 67.6298 69.9155 66.9169 69.9155 66.1922L78.8281 66.3091Z" stroke="#47688E" stroke-width="2.5" stroke-miterlimit="10" stroke-linecap="round" stroke-linejoin="round"/>
</g>
<defs>
<clipPath id="clip0_5_252">
<rect width="80" height="80" fill="white"/>
</clipPath>
</defs>
</svg>
