<svg width="80" height="80" viewBox="0 0 80 80" fill="none" xmlns="http://www.w3.org/2000/svg">
<g clip-path="url(#clip0_5_255)">
<path d="M32.692 13.4833L34.4519 9.55312C34.6012 9.21953 34.8438 8.93624 35.1504 8.73741C35.4571 8.53858 35.8147 8.43268 36.1802 8.4325H42.1719C42.7891 8.4325 43.3667 8.73234 43.7219 9.2375L45.8242 12.2286C46.0578 12.562 46.2412 12.9279 46.3688 13.3145L46.6119 14.058" stroke="#47688E" stroke-width="2.5" stroke-miterlimit="10" stroke-linecap="round" stroke-linejoin="round"/>
<path d="M14.7459 27.6886L17.3534 23.1239C17.5265 22.8211 17.7605 22.5574 18.0406 22.3496C18.3207 22.1418 18.6408 21.9943 18.9808 21.9164L23.6764 20.8352C24.0169 20.7566 24.3375 20.6083 24.6178 20.3997C24.8982 20.1911 25.1323 19.9266 25.3053 19.623L28.0722 14.76C28.2929 14.3724 28.6123 14.0501 28.9979 13.8258C29.3835 13.6016 29.8216 13.4833 30.2677 13.4831H33.9942C34.5417 13.4832 35.0743 13.6612 35.5118 13.9903C35.9494 14.3194 36.2682 14.7817 36.4202 15.3077L38.6267 22.9391" stroke="#47688E" stroke-width="2.5" stroke-miterlimit="10" stroke-linecap="round" stroke-linejoin="round"/>
<path d="M40 71.5677C44.1842 71.5677 47.5763 68.1757 47.5763 63.9914C47.5763 59.8072 44.1842 56.4152 40 56.4152C35.8158 56.4152 32.4238 59.8072 32.4238 63.9914C32.4238 68.1757 35.8158 71.5677 40 71.5677Z" stroke="#47688E" stroke-width="2.5" stroke-miterlimit="10" stroke-linecap="round" stroke-linejoin="round"/>
<path d="M66.2011 71.5677C70.3853 71.5677 73.7773 68.1757 73.7773 63.9914C73.7773 59.8072 70.3853 56.4152 66.2011 56.4152C62.0169 56.4152 58.6248 59.8072 58.6248 63.9914C58.6248 68.1757 62.0169 71.5677 66.2011 71.5677Z" stroke="#47688E" stroke-width="2.5" stroke-miterlimit="10" stroke-linecap="round" stroke-linejoin="round"/>
<path d="M66.2011 66.5169C67.5959 66.5169 68.7266 65.3862 68.7266 63.9914C68.7266 62.5966 67.5959 61.4659 66.2011 61.4659C64.8063 61.4659 63.6756 62.5966 63.6756 63.9914C63.6756 65.3862 64.8063 66.5169 66.2011 66.5169Z" stroke="#47688E" stroke-width="2.5" stroke-miterlimit="10" stroke-linecap="round" stroke-linejoin="round"/>
<path d="M40 66.5169C41.3948 66.5169 42.5255 65.3862 42.5255 63.9914C42.5255 62.5966 41.3948 61.4659 40 61.4659C38.6052 61.4659 37.4745 62.5966 37.4745 63.9914C37.4745 65.3862 38.6052 66.5169 40 66.5169Z" stroke="#47688E" stroke-width="2.5" stroke-miterlimit="10" stroke-linecap="round" stroke-linejoin="round"/>
<path d="M13.7989 71.5677C17.9832 71.5677 21.3752 68.1757 21.3752 63.9914C21.3752 59.8072 17.9832 56.4152 13.7989 56.4152C9.61466 56.4152 6.22266 59.8072 6.22266 63.9914C6.22266 68.1757 9.61466 71.5677 13.7989 71.5677Z" stroke="#47688E" stroke-width="2.5" stroke-miterlimit="10" stroke-linecap="round" stroke-linejoin="round"/>
<path d="M13.7989 66.5169C15.1937 66.5169 16.3244 65.3862 16.3244 63.9914C16.3244 62.5966 15.1937 61.4659 13.7989 61.4659C12.4041 61.4659 11.2734 62.5966 11.2734 63.9914C11.2734 65.3862 12.4041 66.5169 13.7989 66.5169Z" stroke="#47688E" stroke-width="2.5" stroke-miterlimit="10" stroke-linecap="round" stroke-linejoin="round"/>
<path d="M1.17188 56.4152H78.8281M49.8094 71.5672H1.17188M78.8281 71.5672H55.2938M15.5609 38.85L14.7453 32.7391M16.2844 44.2844L17.5375 53.675C17.7469 55.2437 19.0844 56.4156 20.6672 56.4156H59.3328C60.9156 56.4156 62.2531 55.2437 62.4625 53.675L65.2547 32.7391" stroke="#47688E" stroke-width="2.5" stroke-miterlimit="10" stroke-linecap="round" stroke-linejoin="round"/>
<path d="M67.1481 32.7395H12.8519C12.517 32.7395 12.1958 32.6065 11.959 32.3697C11.7222 32.1329 11.5892 31.8118 11.5892 31.4769V28.9514C11.5892 28.6165 11.7222 28.2954 11.959 28.0586C12.1958 27.8218 12.517 27.6888 12.8519 27.6888H67.1481C67.3139 27.6888 67.4781 27.7214 67.6313 27.7849C67.7845 27.8483 67.9237 27.9413 68.041 28.0586C68.1582 28.1758 68.2512 28.315 68.3147 28.4682C68.3781 28.6214 68.4108 28.7856 68.4108 28.9514V31.4769C68.4107 31.8117 68.2777 32.1329 68.0409 32.3697C67.8041 32.6064 67.483 32.7395 67.1481 32.7395Z" stroke="#47688E" stroke-width="2.5" stroke-miterlimit="10" stroke-linecap="round" stroke-linejoin="round"/>
<path d="M34.3625 27.6891L46.4297 14.2484C48.2344 12.2391 51.3828 12.2391 53.1891 14.2484L54.7625 16.0016M65.2547 27.6891L58.425 20.0813" stroke="#47688E" stroke-width="2.5" stroke-miterlimit="10" stroke-linecap="round" stroke-linejoin="round"/>
</g>
<defs>
<clipPath id="clip0_5_255">
<rect width="80" height="80" fill="white"/>
</clipPath>
</defs>
</svg>
