<svg width="80" height="80" viewBox="0 0 80 80" fill="none" xmlns="http://www.w3.org/2000/svg">
<g clip-path="url(#clip0_5_254)">
<path d="M6.94531 19.6484C3.28594 25.5687 1.17188 32.5422 1.17188 40C1.17188 51.2531 6.04844 61.9406 14.5484 69.3234C21.6062 75.4531 30.6437 78.8281 40 78.8281C52.6516 78.8281 63.9094 72.7453 71.0016 63.3516M10.1391 15.2094C17.2656 6.6375 28.0062 1.17188 40 1.17188C61.4094 1.17188 78.8281 18.5906 78.8281 40C78.8281 46.8016 77.0703 53.2016 73.9828 58.7672" stroke="#47688E" stroke-width="2.5" stroke-miterlimit="10" stroke-linecap="round" stroke-linejoin="round"/>
<path d="M26.9359 4.10687L29.1058 9.09906M15.4477 10.7397L19.1308 15.1291M2.38359 33.3672L7.93875 34.3467M2.38359 46.6328L8.14843 45.6163M15.4477 69.2603L19.0856 64.9247M26.9359 75.8931L28.8294 70.6911M53.0641 75.8931L51.1294 70.578M64.5523 69.2603L60.9212 64.933M77.6164 46.6328L72.0256 45.647M77.6164 33.3672L72.0548 34.3478M64.5523 10.7397L61 14.9731M53.0641 4.10687L51.1736 9.30094M40 7.82969C22.2609 7.82969 7.82968 22.2609 7.82968 40C7.82968 49.3234 11.8719 58.1813 18.9187 64.3031C24.7609 69.3766 32.2484 72.1703 40 72.1703C57.7391 72.1703 72.1703 57.7391 72.1703 40C72.1703 22.2609 57.7391 7.82969 40 7.82969Z" stroke="#47688E" stroke-width="2.5" stroke-miterlimit="10" stroke-linecap="round" stroke-linejoin="round"/>
<path d="M44.6187 57.1562H25.6406M19.9437 40.4266L12.1734 53.8828C11.9823 54.2148 11.8816 54.5911 11.8816 54.9742C11.8816 55.3573 11.9823 55.7337 12.1734 56.0656C12.3653 56.3972 12.6409 56.6726 12.9728 56.864C13.3046 57.0554 13.681 57.1562 14.0641 57.1562H20.1719M22.9062 35.2953L38.1109 8.95937C38.5 8.28437 39.2203 7.86874 40 7.86874C40.7797 7.86874 41.5 8.28437 41.8891 8.95937L49.6703 22.4359M52.5719 27.4625L67.8266 53.8828C68.2156 54.5594 68.2156 55.3906 67.8266 56.0656C67.6347 56.3972 67.3591 56.6726 67.0272 56.864C66.6954 57.0554 66.319 57.1562 65.9359 57.1562H50.6219M47.4766 27.3656L62.1578 52.7922H52.8531M46.9562 52.7922H17.8422L22.4703 44.7766M25.4453 39.6234L40 14.4141L44.7391 22.6234" stroke="#47688E" stroke-width="2.5" stroke-miterlimit="10" stroke-linecap="round" stroke-linejoin="round"/>
<path d="M35.5078 22.8438H65.9359C66.7156 22.8438 67.4359 23.2594 67.8266 23.9344C68.2156 24.6094 68.2156 25.4406 67.8266 26.1172L60.1031 39.4922M27.4328 52.5453L12.1734 26.1172C11.9823 25.7852 11.8816 25.4089 11.8816 25.0258C11.8816 24.6427 11.9823 24.2663 12.1734 23.9344C12.3653 23.6028 12.6409 23.3274 12.9728 23.136C13.3046 22.9446 13.681 22.8438 14.0641 22.8438H29.5578M30.1937 57.3266L38.1109 71.0406C38.5 71.7156 39.2203 72.1313 40 72.1313C40.7797 72.1313 41.5 71.7156 41.8891 71.0406L56.9906 44.8844M35.2844 57.4188L40 65.5859L54.5266 40.4266M32.4 52.4203L17.8422 27.2078H27.0609M41.7562 27.2078H62.1578L57.4641 35.3375M36.2875 27.2078H33.0375M46.8947 40C42.9548 41.6319 41.6319 42.9548 40 46.8947C38.3681 42.9548 37.0452 41.6319 33.1053 40C37.0452 38.3681 38.3681 37.0452 40 33.1053C41.6319 37.0452 42.9548 38.3681 46.8947 40Z" stroke="#47688E" stroke-width="2.5" stroke-miterlimit="10" stroke-linecap="round" stroke-linejoin="round"/>
</g>
<defs>
<clipPath id="clip0_5_254">
<rect width="80" height="80" fill="white"/>
</clipPath>
</defs>
</svg>
