<svg width="80" height="80" viewBox="0 0 80 80" fill="none" xmlns="http://www.w3.org/2000/svg">
<path d="M78.75 40C78.7498 47.6639 76.4771 55.1557 72.2192 61.5279C67.9613 67.9002 61.9094 72.8668 54.8289 75.7996C47.7483 78.7324 39.9571 79.4998 32.4405 78.0047C24.9238 76.5096 18.0193 72.8191 12.6 67.4C6.19819 60.9974 2.24 52.5555 1.4123 43.5394C0.584605 34.5232 2.93965 25.5018 8.06875 18.0406C8.16035 17.9018 8.27871 17.7827 8.41691 17.6903C8.55511 17.5978 8.71037 17.5338 8.8736 17.5021C9.03682 17.4704 9.20474 17.4716 9.36751 17.5056C9.53028 17.5396 9.68463 17.6057 9.82153 17.7001C9.95842 17.7945 10.0751 17.9152 10.1648 18.0552C10.2544 18.1953 10.3152 18.3518 10.3436 18.5156C10.372 18.6795 10.3675 18.8473 10.3302 19.0094C10.2929 19.1714 10.2237 19.3244 10.1266 19.4594C5.00458 26.9093 2.85113 36.0043 4.08866 44.96C5.3262 53.9157 9.8654 62.0858 16.8158 67.8676C23.7662 73.6493 32.6261 76.6254 41.6574 76.2119C50.6888 75.7985 59.2397 72.0254 65.6328 65.6328C71.9967 59.267 75.7648 50.7613 76.2039 41.7707C76.643 32.7802 73.7217 23.9478 68.0084 16.9921C62.2951 10.0364 54.1985 5.45499 45.2939 4.1392C36.3893 2.82341 27.3136 4.86739 19.8328 9.87343L21.8109 12.2266L13.2203 13.75L16.1953 5.54843L18.2156 7.95156C24.0408 3.99242 30.835 1.69576 37.8676 1.30847C44.9002 0.921179 51.9054 2.4579 58.1302 5.75344C64.3549 9.04897 69.5638 13.9787 73.1968 20.0127C76.8299 26.0467 78.7497 32.9567 78.75 40Z" fill="#47688E"/>
<path d="M40 71.25C57.2313 71.25 71.25 57.2313 71.25 40C71.25 22.7688 57.2313 8.75 40 8.75C22.7688 8.75 8.75 22.7688 8.75 40C8.75 57.2313 22.7688 71.25 40 71.25ZM40 11.25C55.8528 11.25 68.75 24.1472 68.75 40C68.75 55.8528 55.8528 68.75 40 68.75C24.1472 68.75 11.25 55.8528 11.25 40C11.25 24.1472 24.1472 11.25 40 11.25Z" fill="#47688E"/>
<path d="M40 16.25C40.3315 16.25 40.6495 16.1183 40.8839 15.8839C41.1183 15.6495 41.25 15.3315 41.25 15V13.75C41.25 13.4185 41.1183 13.1005 40.8839 12.8661C40.6495 12.6317 40.3315 12.5 40 12.5C39.6685 12.5 39.3505 12.6317 39.1161 12.8661C38.8817 13.1005 38.75 13.4185 38.75 13.75V15C38.75 15.3315 38.8817 15.6495 39.1161 15.8839C39.3505 16.1183 39.6685 16.25 40 16.25ZM40 63.75C39.6685 63.75 39.3505 63.8817 39.1161 64.1161C38.8817 64.3505 38.75 64.6685 38.75 65V66.25C38.75 66.5815 38.8817 66.8995 39.1161 67.1339C39.3505 67.3683 39.6685 67.5 40 67.5C40.3315 67.5 40.6495 67.3683 40.8839 67.1339C41.1183 66.8995 41.25 66.5815 41.25 66.25V65C41.25 64.6685 41.1183 64.3505 40.8839 64.1161C40.6495 63.8817 40.3315 63.75 40 63.75ZM65 41.25H66.25C66.5815 41.25 66.8995 41.1183 67.1339 40.8839C67.3683 40.6495 67.5 40.3315 67.5 40C67.5 39.6685 67.3683 39.3505 67.1339 39.1161C66.8995 38.8817 66.5815 38.75 66.25 38.75H65C64.6685 38.75 64.3505 38.8817 64.1161 39.1161C63.8817 39.3505 63.75 39.6685 63.75 40C63.75 40.3315 63.8817 40.6495 64.1161 40.8839C64.3505 41.1183 64.6685 41.25 65 41.25ZM13.75 41.25H15C15.3315 41.25 15.6495 41.1183 15.8839 40.8839C16.1183 40.6495 16.25 40.3315 16.25 40C16.25 39.6685 16.1183 39.3505 15.8839 39.1161C15.6495 38.8817 15.3315 38.75 15 38.75H13.75C13.4185 38.75 13.1005 38.8817 12.8661 39.1161C12.6317 39.3505 12.5 39.6685 12.5 40C12.5 40.3315 12.6317 40.6495 12.8661 40.8839C13.1005 41.1183 13.4185 41.25 13.75 41.25ZM57.6777 23.5723C57.8418 23.5726 58.0044 23.5403 58.1561 23.4775C58.3077 23.4147 58.4455 23.3225 58.5614 23.2063L59.4453 22.3223C59.5635 22.2068 59.6576 22.0689 59.7222 21.9167C59.7868 21.7645 59.8205 21.601 59.8214 21.4357C59.8224 21.2703 59.7905 21.1065 59.7277 20.9535C59.6649 20.8006 59.5723 20.6617 59.4554 20.5447C59.3385 20.4278 59.1996 20.3353 59.0467 20.2724C58.8938 20.2096 58.7299 20.1777 58.5646 20.1786C58.3992 20.1795 58.2357 20.2132 58.0835 20.2777C57.9313 20.3422 57.7934 20.4363 57.6778 20.5545L56.7938 21.4384C56.6189 21.6133 56.4999 21.836 56.4516 22.0785C56.4034 22.321 56.4282 22.5723 56.5228 22.8007C56.6174 23.0291 56.7776 23.2243 56.9832 23.3617C57.1887 23.499 57.4304 23.5724 57.6777 23.5723ZM21.4384 59.8116C21.6026 59.8118 21.7652 59.7796 21.9169 59.7167C22.0686 59.6539 22.2064 59.5617 22.3223 59.4455L23.2064 58.5616C23.3225 58.4455 23.4146 58.3077 23.4774 58.156C23.5402 58.0043 23.5726 57.8418 23.5726 57.6776C23.5726 57.5134 23.5402 57.3508 23.4774 57.1992C23.4146 57.0475 23.3225 56.9097 23.2064 56.7936C23.0903 56.6775 22.9525 56.5854 22.8008 56.5226C22.6492 56.4598 22.4866 56.4274 22.3224 56.4274C22.1582 56.4274 21.9957 56.4598 21.844 56.5226C21.6923 56.5854 21.5545 56.6775 21.4384 56.7936L20.5545 57.6777C20.3797 57.8525 20.2606 58.0752 20.2124 58.3177C20.1642 58.5602 20.1889 58.8115 20.2835 59.0399C20.3782 59.2683 20.5384 59.4636 20.744 59.6009C20.9495 59.7383 21.1912 59.8116 21.4384 59.8116ZM58.5616 56.7936C58.4455 56.6775 58.3077 56.5854 58.156 56.5226C58.0043 56.4598 57.8418 56.4274 57.6776 56.4274C57.5134 56.4274 57.3508 56.4598 57.1992 56.5226C57.0475 56.5854 56.9097 56.6775 56.7936 56.7936C56.6775 56.9097 56.5854 57.0475 56.5226 57.1992C56.4598 57.3508 56.4274 57.5134 56.4274 57.6776C56.4274 57.8418 56.4598 58.0043 56.5226 58.156C56.5854 58.3077 56.6775 58.4455 56.7936 58.5616L57.6777 59.4455C57.9121 59.6799 58.23 59.8116 58.5616 59.8116C58.8931 59.8116 59.211 59.6799 59.4455 59.4455C59.6799 59.211 59.8116 58.8931 59.8116 58.5616C59.8116 58.23 59.6799 57.9121 59.4455 57.6777L58.5616 56.7936ZM21.4386 23.2063C21.5544 23.3235 21.6923 23.4166 21.8442 23.4804C21.9962 23.5441 22.1593 23.5772 22.324 23.5777C22.4888 23.5782 22.6521 23.5461 22.8044 23.4833C22.9568 23.4204 23.0952 23.3281 23.2117 23.2116C23.3282 23.095 23.4206 22.9566 23.4834 22.8043C23.5462 22.6519 23.5783 22.4886 23.5778 22.3239C23.5773 22.1591 23.5442 21.996 23.4804 21.8441C23.4167 21.6921 23.3235 21.5542 23.2063 21.4384L22.3222 20.5545C22.2066 20.4363 22.0687 20.3422 21.9165 20.2777C21.7643 20.2132 21.6008 20.1795 21.4354 20.1786C21.2701 20.1777 21.1062 20.2096 20.9533 20.2724C20.8004 20.3353 20.6615 20.4278 20.5446 20.5447C20.4277 20.6617 20.3351 20.8006 20.2723 20.9535C20.2095 21.1065 20.1776 21.2703 20.1786 21.4357C20.1795 21.601 20.2132 21.7645 20.2778 21.9167C20.3424 22.0689 20.4365 22.2068 20.5547 22.3223L21.4386 23.2063ZM21.5402 44.0848L32.2411 54.7856C32.3572 54.9017 32.495 54.9938 32.6466 55.0566C32.7983 55.1194 32.9608 55.1518 33.125 55.1518C33.2892 55.1518 33.4517 55.1194 33.6034 55.0566C33.755 54.9938 33.8928 54.9017 34.0089 54.7856L58.4598 30.3348C58.5759 30.2188 58.668 30.081 58.7309 29.9293C58.7937 29.7776 58.8261 29.615 58.8261 29.4509C58.8261 29.2867 58.7937 29.1241 58.7309 28.9724C58.668 28.8208 58.5759 28.683 58.4598 28.5669L55.8081 25.9152C55.692 25.7991 55.5542 25.707 55.4026 25.6441C55.2509 25.5813 55.0883 25.5489 54.9241 25.5489C54.76 25.5489 54.5974 25.5813 54.4457 25.6441C54.294 25.707 54.1562 25.7991 54.0402 25.9152L33.125 46.8306L25.9598 39.6652C25.8438 39.5491 25.706 39.457 25.5543 39.3941C25.4026 39.3313 25.24 39.2989 25.0759 39.2989C24.9117 39.2989 24.7491 39.3313 24.5974 39.3941C24.4458 39.457 24.308 39.5491 24.1919 39.6652L21.5402 42.3169C21.4241 42.433 21.332 42.5708 21.2691 42.7224C21.2063 42.8741 21.1739 43.0367 21.1739 43.2009C21.1739 43.365 21.2063 43.5276 21.2691 43.6793C21.332 43.831 21.4241 43.9688 21.5402 44.0848ZM25.0758 42.3169L32.2411 49.4823C32.3572 49.5984 32.495 49.6905 32.6466 49.7533C32.7983 49.8162 32.9608 49.8485 33.125 49.8485C33.2892 49.8485 33.4517 49.8162 33.6034 49.7533C33.755 49.6905 33.8928 49.5984 34.0089 49.4823L54.9242 28.5669L55.8081 29.4508L33.125 52.1339L24.1919 43.2008L25.0758 42.3169Z" fill="#47688E"/>
</svg>
