<svg width="80" height="80" viewBox="0 0 80 80" fill="none" xmlns="http://www.w3.org/2000/svg">
<g clip-path="url(#clip0_5_250)">
<path d="M25.3889 8.51923H19.6041C18.7411 8.51923 18.0416 9.21876 18.0416 10.0817V50.4588M53.7373 74.9472H58.583M64.0517 74.9472H66.8033C67.6662 74.9472 68.3658 74.2477 68.3658 73.3847V67.5999" stroke="#47688E" stroke-width="2.5" stroke-miterlimit="10" stroke-linecap="round" stroke-linejoin="round"/>
<path d="M49.6127 67.5998H74.1506C75.0136 67.5998 75.7131 66.9003 75.7131 66.0373V2.73438C75.7131 1.87141 75.0136 1.17188 74.1506 1.17188H26.9514C26.0884 1.17188 25.3889 1.87141 25.3889 2.73438V34.6828M25.3889 40.1516V45.3722M64.4405 7.33266H45.6608" stroke="#47688E" stroke-width="2.5" stroke-miterlimit="10" stroke-linecap="round" stroke-linejoin="round"/>
<path d="M40.192 7.33266H33.2156C33.0084 7.33266 32.8097 7.41497 32.6632 7.56148C32.5167 7.70799 32.4344 7.90671 32.4344 8.11391V15.512C32.4344 15.7192 32.5167 15.9179 32.6632 16.0645C32.8097 16.211 33.0084 16.2933 33.2156 16.2933H67.8866C68.0938 16.2933 68.2925 16.211 68.439 16.0645C68.5855 15.9179 68.6678 15.7192 68.6678 15.512V12.4445" stroke="#47688E" stroke-width="2.5" stroke-miterlimit="10" stroke-linecap="round" stroke-linejoin="round"/>
<path d="M32.4342 23.0102H58.9255M32.4342 28.8477H58.9255M32.4342 34.6853H58.9255M32.4342 40.523H58.9255M58.9255 46.3605H33.3887M58.9255 52.1981H42.3503M58.9255 58.0358H47.1048M64.5692 23.0102H68.6676M64.5692 28.8477H68.6676M64.5692 34.6853H68.6676M64.5692 40.523H68.6676M64.5692 46.3606H68.6676M64.5692 52.1981H68.6676M64.5692 58.0358H68.6676M44.9469 54.8391C42.0291 58.3944 40.2773 62.9431 40.2773 67.9012V73.3336H40.3122M17.712 73.3336H17.7469V67.9012C17.7469 62.9431 15.9952 58.3944 13.0773 54.8391M64.4405 1.17188V10.882C64.4405 11.745 65.14 12.4445 66.003 12.4445H75.7131L64.4405 1.17188ZM32.1264 65.8389H25.8978C25.5292 65.8389 25.1758 65.6925 24.9151 65.4319C24.6545 65.1713 24.5081 64.8178 24.5081 64.4492V47.072C24.5081 45.9208 25.4414 44.9875 26.5927 44.9875H31.4316C32.5828 44.9875 33.5161 45.9208 33.5161 47.072V64.4494C33.516 64.8179 33.3696 65.1714 33.109 65.4319C32.8484 65.6925 32.4949 65.8389 32.1264 65.8389Z" stroke="#47688E" stroke-width="2.5" stroke-miterlimit="10" stroke-linecap="round" stroke-linejoin="round"/>
<path d="M24.5081 47.7922C15.2952 49.8466 8.40781 58.0691 8.40781 67.9012V73.3336H49.6164V67.9012C49.6164 58.0691 42.7291 49.8466 33.5159 47.792M52.3477 78.8281H5.67656C5.30799 78.8281 4.95452 78.6817 4.6939 78.4211C4.43329 78.1605 4.28687 77.807 4.28687 77.4384V74.7233C4.28687 74.5408 4.32282 74.3601 4.39266 74.1915C4.46249 74.0229 4.56486 73.8697 4.6939 73.7406C4.82295 73.6116 4.97615 73.5092 5.14475 73.4394C5.31335 73.3695 5.49406 73.3336 5.67656 73.3336H52.3477C52.5301 73.3336 52.7109 73.3695 52.8795 73.4394C53.0481 73.5092 53.2013 73.6116 53.3303 73.7406C53.4594 73.8697 53.5617 74.0229 53.6316 74.1915C53.7014 74.3601 53.7373 74.5408 53.7373 74.7233V77.4384C53.7373 77.807 53.5909 78.1605 53.3303 78.4211C53.0697 78.6817 52.7162 78.8281 52.3477 78.8281Z" stroke="#47688E" stroke-width="2.5" stroke-miterlimit="10" stroke-linecap="round" stroke-linejoin="round"/>
</g>
<defs>
<clipPath id="clip0_5_250">
<rect width="80" height="80" fill="white"/>
</clipPath>
</defs>
</svg>
