<svg width="80" height="80" viewBox="0 0 80 80" fill="none" xmlns="http://www.w3.org/2000/svg">
<g clip-path="url(#clip0_5_253)">
<path d="M53.9878 43.3577C58.5079 43.3577 62.1722 39.6934 62.1722 35.1733C62.1722 30.6532 58.5079 26.9889 53.9878 26.9889C49.4677 26.9889 45.8035 30.6532 45.8035 35.1733C45.8035 39.6934 49.4677 43.3577 53.9878 43.3577Z" stroke="#47688E" stroke-width="2.5" stroke-miterlimit="10" stroke-linecap="round" stroke-linejoin="round"/>
<path d="M55.8138 43.1531L70.4888 73.8719L73.6434 69.3984C73.7184 69.2922 73.7888 69.1844 73.8528 69.0734M65.9769 47.8716L61.4825 38.4641M73.2763 63.15L68.3517 52.8425M70.4892 73.872L72.857 78.8281M53.9878 39.128C51.807 39.128 50.033 37.3539 50.033 35.1731C50.033 32.9923 51.807 31.2183 53.9878 31.2183C56.1686 31.2183 57.9427 32.9923 57.9427 35.1731C57.9427 37.3539 56.1686 39.128 53.9878 39.128Z" stroke="#47688E" stroke-width="2.5" stroke-miterlimit="10" stroke-linecap="round" stroke-linejoin="round"/>
<path d="M74.872 69.2369C76.6684 69.2369 78.1247 67.7806 78.1247 65.9842C78.1247 64.1878 76.6684 62.7316 74.872 62.7316C73.0756 62.7316 71.6194 64.1878 71.6194 65.9842C71.6194 67.7806 73.0756 69.2369 74.872 69.2369Z" stroke="#47688E" stroke-width="2.5" stroke-miterlimit="10" stroke-linecap="round" stroke-linejoin="round"/>
<path d="M46.4794 38.4344L39.6028 52.8266L33.9106 64.7422C33.5567 65.4833 33.4066 66.3053 33.4758 67.1237C33.545 67.9421 33.831 68.7273 34.3044 69.3984L37.4591 73.8719L45.9559 56.0875L52.1388 43.1484M37.4592 73.872L35.0914 78.8281M53.9878 26.9887V22.4802M55.1211 22.4802H52.8544C51.927 22.4802 51.1753 21.7284 51.1753 20.8011V15.1948C51.1753 14.2675 51.927 13.5158 52.8544 13.5158H55.1211C56.0484 13.5158 56.8002 14.2675 56.8002 15.1948V20.8012C56.8002 21.7284 56.0484 22.4802 55.1211 22.4802Z" stroke="#47688E" stroke-width="2.5" stroke-miterlimit="10" stroke-linecap="round" stroke-linejoin="round"/>
<path d="M45.956 56.0875C48.4763 56.9484 51.1778 57.4156 53.9872 57.4156C56.7903 57.4156 59.4841 56.9516 61.9966 56.0953M68.3513 52.8422C70.2544 51.4891 71.9606 49.875 73.4138 48.0516M34.5606 48.0516C36.0105 49.8706 37.7077 51.4778 39.6028 52.8266" stroke="#47688E" stroke-width="2.5" stroke-miterlimit="10" stroke-linecap="round" stroke-linejoin="round"/>
<path d="M18.3792 24.3748C23.077 24.3748 26.8853 20.5665 26.8853 15.8687C26.8853 11.171 23.077 7.36266 18.3792 7.36266C13.6814 7.36266 9.87314 11.171 9.87314 15.8687C9.87314 20.5665 13.6814 24.3748 18.3792 24.3748Z" stroke="#47688E" stroke-width="2.5" stroke-miterlimit="10" stroke-linecap="round" stroke-linejoin="round"/>
<path d="M11.2295 53.6497V65.9842H25.0469M15.8927 61.6392L24.0256 55.3056M53.9872 26.9891V22.4797M22.8645 30.5716H13.8939L9.4086 38.3403L13.8939 46.1091H22.8645L27.3499 38.3403L22.8645 30.5716Z" stroke="#47688E" stroke-width="2.5" stroke-miterlimit="10" stroke-linecap="round" stroke-linejoin="round"/>
<path d="M1.87469 57.5375V4.25312C1.87469 2.55156 3.25438 1.17188 4.95595 1.17188H42.1684C43.6294 1.17188 45.0106 1.84219 45.9138 2.98906L52.9653 11.9375C53.3372 12.4109 53.6153 12.9469 53.7856 13.5156M36.545 72.575H4.95595C3.25438 72.575 1.87469 71.1953 1.87469 69.4938V63.0263M53.9872 43.3578V69.4938C53.9872 71.1953 52.6075 72.575 50.9059 72.575H38.0794" stroke="#47688E" stroke-width="2.5" stroke-miterlimit="10" stroke-linecap="round" stroke-linejoin="round"/>
</g>
<defs>
<clipPath id="clip0_5_253">
<rect width="80" height="80" fill="white"/>
</clipPath>
</defs>
</svg>
