<svg width="38" height="60" viewBox="0 0 38 60" fill="none" xmlns="http://www.w3.org/2000/svg">
<path d="M32.9727 8.3762L33.7989 8.97499L0.826232 55.6101L0 55.0113L32.9727 8.3762Z" fill="#2C3F54"/>
<path d="M19.475 34.6252L19.8326 36.2396C20.8595 39.5535 24.1163 41.3352 27.3855 43.1238C31.401 45.3206 35.4352 47.5276 35.3787 52.5966C35.3452 55.6055 33.6156 58.9859 28.3519 59.435L28.346 59.9699C35.5762 59.497 37.9601 54.8483 37.9993 51.3303C38.0637 45.5546 33.6191 43.1628 29.39 40.8871C27.2106 39.7143 25.0885 38.5724 23.6702 37.014L19.475 34.6252Z" fill="#2C3F54"/>
<path d="M16.2419 24.5281L18.344 21.555C16.9013 18.3966 13.6407 16.6419 10.499 14.9513C6.66117 12.8861 3.00089 10.9165 3.049 6.60006C3.08615 3.26718 4.5168 1.17963 7.77026 0.56866L7.77622 0.0337539C2.922 0.672732 0.653102 4.119 0.610794 7.91478C0.555841 12.8449 4.51601 15.0114 8.49452 17.188C11.8966 19.0493 15.3122 20.9178 16.2419 24.5281Z" fill="#2C3F54"/>
<path d="M9.24075 0.547074L9.20376 0.015097C12.8308 -0.149797 16.4492 1.0719 17.5906 1.93158L17.863 7.88373L17.4799 7.9468C16.1494 1.64088 12.8624 0.663717 9.24075 0.547074Z" fill="#2C3F54"/>
<path d="M28.0948 25.9509L28.1318 26.4828C31.7534 26.5995 35.0404 27.5767 36.3709 33.8826L36.754 33.8195L36.4816 27.8674C35.3402 27.0077 31.7218 25.786 28.0948 25.9509Z" fill="#2C3F54"/>
<path d="M19.8002 57.6809L19.1824 50.1945L19.8739 50.1561C20.3066 56.4573 23.3704 58.7299 27.0209 59.4198L27.015 59.9547C23.0413 59.5389 20.8866 58.6655 19.8002 57.6809Z" fill="#2C3F54"/>
<path d="M0.291439 24.2587L0.909144 31.7451C1.99563 32.7298 4.15033 33.6031 8.12397 34.0189L8.12993 33.484C4.47943 32.7942 1.41563 30.5215 0.982858 24.2203L0.291439 24.2587Z" fill="#2C3F54"/>
</svg>
