<svg width="50" height="80" viewBox="0 0 50 80" fill="none" xmlns="http://www.w3.org/2000/svg">
<path d="M43.3851 11.1683L44.4722 11.9667L1.08715 74.1468L0 73.3484L43.3851 11.1683Z" fill="white"/>
<path d="M25.625 46.1669L26.0956 48.3195C27.4467 52.738 31.732 55.1137 36.0336 57.4984C41.3172 60.4275 46.6253 63.3702 46.551 70.1288C46.5068 74.1406 44.2311 78.6478 37.3052 79.2467L37.2973 79.9599C46.8108 79.3293 49.9475 73.1311 49.9991 68.4404C50.0838 60.7394 44.2356 57.5505 38.671 54.5161C35.8035 52.9525 33.0112 51.4299 31.145 49.352L25.625 46.1669Z" fill="white"/>
<path d="M21.3709 32.7041L24.1368 28.74C22.2386 24.5288 17.9483 22.1892 13.8145 19.9351C8.7647 17.1815 3.94854 14.5553 4.01184 8.80008C4.06072 4.35624 5.94316 1.57284 10.224 0.758213L10.2319 0.0450052C3.84473 0.896976 0.859345 5.492 0.803676 10.553C0.73137 17.1265 5.94212 20.0152 11.177 22.9173C15.6535 25.399 20.1476 27.8904 21.3709 32.7041Z" fill="white"/>
<path d="M12.1589 0.729432L12.1102 0.0201294C16.8826 -0.19973 21.6437 1.4292 23.1456 2.57544L23.504 10.5116L22.9999 10.5957C21.2492 2.18784 16.9242 0.884956 12.1589 0.729432Z" fill="white"/>
<path d="M36.9668 34.6012L37.0155 35.3105C41.7808 35.466 46.1058 36.7689 47.8565 45.1768L48.3605 45.0927L48.0021 37.1565C46.5003 36.0102 41.7392 34.3813 36.9668 34.6012Z" fill="white"/>
<path d="M26.0528 76.9079L25.2401 66.926L26.1498 66.8748C26.7193 75.2764 30.7506 78.3066 35.5539 79.2264L35.546 79.9396C30.3175 79.3852 27.4824 78.2207 26.0528 76.9079Z" fill="white"/>
<path d="M0.383473 32.345L1.19624 42.3269C2.62582 43.6397 5.46095 44.8042 10.6894 45.3586L10.6973 44.6453C5.89399 43.7255 1.86266 40.6954 1.29323 32.2938L0.383473 32.345Z" fill="white"/>
</svg>
